<svg width="128" height="64" xmlns="http://www.w3.org/2000/svg" xmlns:xlink="http://www.w3.org/1999/xlink">
  <defs/>
  <g>
    <path stroke="none" fill="#FFCC2F" d="M102 3.9 Q102.05 2 104 2 L120 2 Q121.95 2 122 3.9 L122 8 102 8 102 3.9 M70 3.9 Q70.05 2 72 2 L88 2 Q89.95 2 90 3.9 L90 8 70 8 70 3.9 M127 10.2 L127 34.3 32 62 1 62 1 10.15 1.85 10 126.1 10 127 10.2 M6 3.9 Q6.05 2 8 2 L24 2 Q25.95 2 26 3.9 L26 8 6 8 6 3.9 M38 3.9 Q38.05 2 40 2 L56 2 Q57.95 2 58 3.9 L58 8 38 8 38 3.9"/>
    <path stroke="none" fill="#FFE788" d="M38 3.9 L38 2 Q38 0 40 0 L56 0 Q58 0 58 2 L58 3.9 Q57.95 2 56 2 L40 2 Q38.05 2 38 3.9 M122 3.9 Q121.95 2 120 2 L104 2 Q102.05 2 102 3.9 L102 2 Q102 0 104 0 L120 0 Q122 0 122 2 L122 3.9 M102 8 L122 8 126.1 8 127 8.2 Q127.95 8.55 128 9.9 L128 11.75 127.8 11 Q127.6 10.4 127 10.2 L126.1 10 1.85 10 1 10.15 Q0.05 10.55 0 11.9 L0 9.9 Q0.05 8.55 1 8.15 L1.85 8 6 8 26 8 38 8 58 8 70 8 90 8 102 8 M90 3.9 Q89.95 2 88 2 L72 2 Q70.05 2 70 3.9 L70 2 Q70 0 72 0 L88 0 Q90 0 90 2 L90 3.9 M26 3.9 Q25.95 2 24 2 L8 2 Q6.05 2 6 3.9 L6 2 Q6 0 8 0 L24 0 Q26 0 26 2 L26 3.9"/>
    <path stroke="none" fill="#FFB733" d="M127 10.2 Q127.6 10.4 127.8 11 L128 11.75 128 34 127 34.3 127 10.2 M1 10.15 L1 62 0 62 0 11.9 Q0.05 10.55 1 10.15"/>
    <path stroke="none" fill="#FDA827" d="M127 34.3 L128 34 128 36 32 64 0 64 0 62 1 62 32 62 127 34.3"/>
  </g>
</svg>