<svg width="64" height="64" xmlns="http://www.w3.org/2000/svg" xmlns:xlink="http://www.w3.org/1999/xlink">
  <defs/>
  <g>
    <path stroke="none" fill="#FFE788" d="M38 3.9 L38 2 Q38 0 40 0 L56 0 Q58 0 58 2 L58 3.9 Q57.95 2 56 2 L40 2 Q38.05 2 38 3.9 M58 8 L62.15 8 63 8.15 Q63.95 8.55 64 9.9 L64 11.9 Q63.95 10.55 63 10.15 L62.15 10 32 10 29.25 12.4 1 37.15 0 38 0 36 1 35.15 29.25 10.4 32 8 38 8 58 8"/>
    <path stroke="none" fill="#FFCC2F" d="M58 8 L38 8 38 3.9 Q38.05 2 40 2 L56 2 Q57.95 2 58 3.9 L58 8 M1 37.15 L29.25 12.4 32 10 62.15 10 63 10.15 63 62 1 62 1 37.15"/>
    <path stroke="none" fill="#FFB733" d="M1 37.15 L1 62 0 62 0 38 1 37.15 M64 11.9 L64 62 63 62 63 10.15 Q63.95 10.55 64 11.9"/>
    <path stroke="none" fill="#FDA827" d="M64 62 L64 64 0 64 0 62 1 62 63 62 64 62"/>
  </g>
</svg>