<svg width="128" height="36" xmlns="http://www.w3.org/2000/svg" xmlns:xlink="http://www.w3.org/1999/xlink">
  <defs/>
  <g>
    <path stroke="none" fill="#FFCC2F" d="M102 8 L102 3.9 Q102.05 2 104 2 L120 2 Q121.95 2 122 3.9 L122 8 102 8 M1 23.85 L96 10 126.1 10 127 10.2 127 34 1 34 1 23.85"/>
    <path stroke="none" fill="#FFE788" d="M1 23.85 L0 24 0 22 96 8 102 8 122 8 126.1 8 127 8.2 Q127.95 8.55 128 9.9 L128 11.75 127.8 11 Q127.6 10.4 127 10.2 L126.1 10 96 10 1 23.85 M122 3.9 Q121.95 2 120 2 L104 2 Q102.05 2 102 3.9 L102 2 Q102 0 104 0 L120 0 Q122 0 122 2 L122 3.9"/>
    <path stroke="none" fill="#FFB733" d="M0 24 L1 23.85 1 34 0 34 0 24 M127 10.2 Q127.6 10.4 127.8 11 L128 11.75 128 34 127 34 127 10.2"/>
    <path stroke="none" fill="#FDA827" d="M128 34 L128 36 0 36 0 34 1 34 127 34 128 34"/>
  </g>
</svg>