<svg width="64" height="22" xmlns="http://www.w3.org/2000/svg" xmlns:xlink="http://www.w3.org/1999/xlink">
  <defs/>
  <g>
    <path stroke="none" fill="#18181C" d="M38 8 L38 3.9 Q38.05 2 40 2 L56 2 Q57.95 2 58 3.9 L58 8 38 8 M6 8 L6 3.9 Q6.05 2 8 2 L24 2 Q25.95 2 26 3.9 L26 8 6 8 M1 10.2 L1.9 10 62.15 10 63 10.15 63 20 1 20 1 10.2"/>
    <path stroke="none" fill="#24242A" d="M1 10.2 Q0.4 10.4 0.2 11 L0 11.75 0 9.9 Q0.05 8.55 1 8.2 L1.9 8 6 8 26 8 38 8 58 8 62.15 8 63 8.15 Q63.95 8.55 64 9.9 L64 11.9 Q63.95 10.55 63 10.15 L62.15 10 1.9 10 1 10.2 M38 3.9 L38 2 Q38 0 40 0 L56 0 Q58 0 58 2 L58 3.9 Q57.95 2 56 2 L40 2 Q38.05 2 38 3.9 M6 3.9 L6 2 Q6 0 8 0 L24 0 Q26 0 26 2 L26 3.9 Q25.95 2 24 2 L8 2 Q6.05 2 6 3.9"/>
    <path stroke="none" fill="#131317" d="M64 20 L64 22 0 22 0 20 1 20 63 20 64 20"/>
    <path stroke="none" fill="#151519" d="M64 20 L63 20 63 10.15 Q63.95 10.55 64 11.9 L64 20 M0 20 L0 11.75 0.2 11 Q0.4 10.4 1 10.2 L1 20 0 20"/>
  </g>
</svg>