<svg width="32" height="22" xmlns="http://www.w3.org/2000/svg" xmlns:xlink="http://www.w3.org/1999/xlink">
  <defs/>
  <g>
    <path stroke="none" fill="#24242A" d="M6 3.9 L6 2 Q6 0 8 0 L24 0 Q26 0 26 2 L26 3.9 Q25.95 2 24 2 L8 2 Q6.05 2 6 3.9 M26 8 L30.15 8 31 8.15 Q31.95 8.55 32 9.9 L32 11.9 Q31.95 10.55 31 10.15 L30.15 10 1.9 10 1 10.2 Q0.4 10.4 0.2 11 L0 11.75 0 9.9 Q0.05 8.55 1 8.2 L1.9 8 6 8 26 8"/>
    <path stroke="none" fill="#18181C" d="M26 8 L6 8 6 3.9 Q6.05 2 8 2 L24 2 Q25.95 2 26 3.9 L26 8 M1 10.2 L1.9 10 30.15 10 31 10.15 31 20 1 20 1 10.2"/>
    <path stroke="none" fill="#131317" d="M32 20 L32 22 0 22 0 20 1 20 31 20 32 20"/>
    <path stroke="none" fill="#151519" d="M32 20 L31 20 31 10.15 Q31.95 10.55 32 11.9 L32 20 M0 20 L0 11.75 0.2 11 Q0.4 10.4 1 10.2 L1 20 0 20"/>
  </g>
</svg>