<svg width="64" height="64" xmlns="http://www.w3.org/2000/svg" xmlns:xlink="http://www.w3.org/1999/xlink">
  <defs/>
  <g>
    <path stroke="none" fill="#E7CBB5" d="M38 3.9 L38 2 Q38 0 40 0 L56 0 Q58 0 58 2 L58 3.9 Q57.95 2 56 2 L40 2 Q38.05 2 38 3.9 M58 8 L62.15 8 63 8.15 Q63.95 8.55 64 9.9 L64 11.9 Q63.95 10.55 63 10.15 L62.15 10 1.9 10 1 10.2 Q0.4 10.4 0.2 11 L0 11.75 0 9.9 Q0.05 8.55 1 8.2 L1.9 8 6 8 26 8 38 8 58 8 M6 3.9 L6 2 Q6 0 8 0 L24 0 Q26 0 26 2 L26 3.9 Q25.95 2 24 2 L8 2 Q6.05 2 6 3.9 M48 31.5 L48 32 48 32.4 48 32.5 48 33 Q48 35.5 46.25 37.25 44.5 39 42 39 L36.9 39 36.25 38.8 35.95 38.2 35.5 37 34.8 36.15 Q33.65 35 32 35 30.35 35 29.15 36.15 L28.5 37 28.1 38.2 27.75 38.8 27.1 39 22 39 Q19.5 39 17.75 37.25 16 35.5 16 33 L16.05 32.65 16 32 16.05 31.65 Q16.2 33.7 17.75 35.25 19.5 37 22 37 L27.1 37 27.75 36.8 28.1 36.2 28.5 35 29.15 34.15 Q30.35 33 32 33 33.65 33 34.8 34.15 L35.5 35 35.95 36.2 36.25 36.8 36.9 37 42 37 Q44.5 37 46.25 35.25 47.8 33.7 48 31.5 M23.05 42.5 L23.3 43.05 Q23.95 44.15 24.9 45.1 27.9 48 32 48 36.2 48 39.15 45.1 L40.7 43.05 40.95 42.5 40.95 42.55 40.95 43.5 40.95 43.55 Q41.15 44.35 40.7 45.05 L39.15 47.1 Q36.2 50 32 50 27.9 50 24.9 47.1 23.95 46.15 23.3 45.05 22.85 44.35 23.05 43.55 L23.05 43.5 23.05 42.55 23.05 42.5"/>
    <path stroke="none" fill="#D2B299" d="M23.05 42.5 L23.05 42.55 23.05 43.5 23.05 43.55 Q22.85 44.35 23.3 45.05 23.95 46.15 24.9 47.1 27.9 50 32 50 36.2 50 39.15 47.1 L40.7 45.05 Q41.15 44.35 40.95 43.55 L40.95 43.5 40.95 42.55 40.95 42.5 40.95 41.55 40.95 41.5 Q40.75 40.7 40.05 40.3 L38.55 40.05 Q37.75 40.25 37.3 40.95 L36.3 42.25 Q34.5 44 32 44 29.5 44 27.7 42.25 L27.75 42.25 26.7 40.95 Q26.25 40.25 25.5 40.05 24.65 39.85 23.95 40.3 23.25 40.7 23.05 41.5 L23.05 41.55 23.05 42.5 M58 3.9 L58 8 38 8 38 3.9 Q38.05 2 40 2 L56 2 Q57.95 2 58 3.9 M6 8 L6 3.9 Q6.05 2 8 2 L24 2 Q25.95 2 26 3.9 L26 8 6 8 M48 31.5 L48 31.35 48 31 48 30.5 Q47.8 28.3 46.25 26.75 44.5 25 42 25 L22 25 Q19.5 25 17.75 26.75 16.2 28.3 16.05 30.5 L16 31 16.05 31.65 16 32 16.05 32.65 16 33 Q16 35.5 17.75 37.25 19.5 39 22 39 L27.1 39 27.75 38.8 28.1 38.2 28.5 37 29.15 36.15 Q30.35 35 32 35 33.65 35 34.8 36.15 L35.5 37 35.95 38.2 36.25 38.8 36.9 39 42 39 Q44.5 39 46.25 37.25 48 35.5 48 33 L48 32.5 48 32.4 48 32 48 31.5 M1 10.2 L1.9 10 62.15 10 63 10.15 63 62 1 62 1 10.2"/>
    <path stroke="none" fill="#93725A" d="M16.05 31.65 L16 31 16.05 30.5 Q16.2 28.3 17.75 26.75 19.5 25 22 25 L42 25 Q44.5 25 46.25 26.75 47.8 28.3 48 30.5 L48 31 48 31.35 48 31.5 Q47.8 33.7 46.25 35.25 44.5 37 42 37 L36.9 37 36.25 36.8 35.95 36.2 35.5 35 34.8 34.15 Q33.65 33 32 33 30.35 33 29.15 34.15 L28.5 35 28.1 36.2 27.75 36.8 27.1 37 22 37 Q19.5 37 17.75 35.25 16.2 33.7 16.05 31.65 M23.05 42.5 L23.05 41.55 23.05 41.5 Q23.25 40.7 23.95 40.3 24.65 39.85 25.5 40.05 26.25 40.25 26.7 40.95 L27.75 42.25 27.7 42.25 Q29.5 44 32 44 34.5 44 36.3 42.25 L37.3 40.95 Q37.75 40.25 38.55 40.05 L40.05 40.3 Q40.75 40.7 40.95 41.5 L40.95 41.55 40.95 42.5 40.7 43.05 39.15 45.1 Q36.2 48 32 48 27.9 48 24.9 45.1 23.95 44.15 23.3 43.05 L23.05 42.5"/>
    <path stroke="none" fill="#C4A48A" d="M64 11.9 L64 62 63 62 63 10.15 Q63.95 10.55 64 11.9 M0 62 L0 11.75 0.2 11 Q0.4 10.4 1 10.2 L1 62 0 62"/>
    <path stroke="none" fill="#AD937F" d="M0 62 L1 62 63 62 64 62 64 64 0 64 0 62"/>
  </g>
</svg>