<svg width="64" height="64" xmlns="http://www.w3.org/2000/svg" xmlns:xlink="http://www.w3.org/1999/xlink">
  <defs/>
  <g>
    <path stroke="none" fill="#C2CAFF" d="M38 3.9 L38 2 Q38 0 40 0 L56 0 Q58 0 58 2 L58 3.9 Q57.95 2 56 2 L40 2 Q38.05 2 38 3.9 M58 8 L62.15 8 63 8.15 Q63.95 8.55 64 9.9 L64 11.9 Q63.95 10.55 63 10.15 L62.15 10 1.9 10 1 10.2 Q0.4 10.4 0.2 11 L0 11.75 0 9.9 Q0.05 8.55 1 8.2 L1.9 8 6 8 26 8 38 8 58 8 M6 3.9 L6 2 Q6 0 8 0 L24 0 Q26 0 26 2 L26 3.9 Q25.95 2 24 2 L8 2 Q6.05 2 6 3.9 M36 28.5 L36 29 36 29.4 36 29.5 36 30 Q36 31.65 34.8 32.8 33.65 34 32 34 30.35 34 29.15 32.8 28 31.65 28 30 L28.05 29.6 28 29 28.05 28.6 Q28.2 29.85 29.15 30.8 30.35 32 32 32 33.65 32 34.8 30.8 35.85 29.8 36 28.5 M46 33.5 L46 34 46 34.4 46 34.5 46 35 Q46 36.65 44.8 37.8 43.65 39 42 39 40.35 39 39.15 37.8 38 36.65 38 35 L38.05 34.6 38 34 38.05 33.6 Q38.2 34.85 39.15 35.8 40.35 37 42 37 43.65 37 44.8 35.8 45.85 34.8 46 33.5 M24.05 44.5 Q24.2 45.05 24.6 45.45 25.15 46 26 46 L38 46 Q38.85 46 39.45 45.45 L39.95 44.5 40 45 39.95 45.5 40 46 Q40 46.85 39.45 47.45 38.85 48 38 48 L26 48 Q25.15 48 24.6 47.45 24 46.85 24 46 L24.05 45.5 24 45 24.05 44.5 M26 33.5 L26 34 26 34.4 26 34.5 26 35 Q26 36.65 24.8 37.8 23.65 39 22 39 20.35 39 19.15 37.8 18 36.65 18 35 L18.05 34.6 18 34 18.05 33.6 Q18.2 34.85 19.15 35.8 20.35 37 22 37 23.65 37 24.8 35.8 25.85 34.8 26 33.5"/>
    <path stroke="none" fill="#A0ADFF" d="M26 33.5 L26 33.4 26 33 26 32.5 Q25.8 31.15 24.8 30.15 23.65 29 22 29 20.35 29 19.15 30.15 18.2 31.15 18.05 32.5 L18 33 18.05 33.55 18.05 33.6 18 34 18.05 34.6 18 35 Q18 36.65 19.15 37.8 20.35 39 22 39 23.65 39 24.8 37.8 26 36.65 26 35 L26 34.5 26 34.4 26 34 26 33.5 M58 3.9 L58 8 38 8 38 3.9 Q38.05 2 40 2 L56 2 Q57.95 2 58 3.9 M6 8 L6 3.9 Q6.05 2 8 2 L24 2 Q25.95 2 26 3.9 L26 8 6 8 M36 28.5 L36 28.4 36 28 36 27.5 Q35.8 26.15 34.8 25.15 33.65 24 32 24 30.35 24 29.15 25.15 28.2 26.15 28.05 27.5 L28 28 28.05 28.55 28.05 28.6 28 29 28.05 29.6 28 30 Q28 31.65 29.15 32.8 30.35 34 32 34 33.65 34 34.8 32.8 36 31.65 36 30 L36 29.5 36 29.4 36 29 36 28.5 M46 33.5 L46 33.4 46 33 46 32.5 Q45.8 31.15 44.8 30.15 43.65 29 42 29 40.35 29 39.15 30.15 38.2 31.15 38.05 32.5 L38 33 38.05 33.55 38.05 33.6 38 34 38.05 34.6 38 35 Q38 36.65 39.15 37.8 40.35 39 42 39 43.65 39 44.8 37.8 46 36.65 46 35 L46 34.5 46 34.4 46 34 46 33.5 M1 10.2 L1.9 10 62.15 10 63 10.15 63 62 1 62 1 10.2 M39.95 44.5 L40 44 39.95 43.5 39.45 42.6 Q38.85 42 38 42 L26 42 Q25.15 42 24.6 42.6 L24.05 43.5 24 44 24.05 44.5 24 45 24.05 45.5 24 46 Q24 46.85 24.6 47.45 25.15 48 26 48 L38 48 Q38.85 48 39.45 47.45 40 46.85 40 46 L39.95 45.5 40 45 39.95 44.5"/>
    <path stroke="none" fill="#646BB6" d="M39.95 44.5 L39.45 45.45 Q38.85 46 38 46 L26 46 Q25.15 46 24.6 45.45 24.2 45.05 24.05 44.5 L24 44 24.05 43.5 24.6 42.6 Q25.15 42 26 42 L38 42 Q38.85 42 39.45 42.6 L39.95 43.5 40 44 39.95 44.5 M28.05 28.6 L28.05 28.55 28 28 28.05 27.5 Q28.2 26.15 29.15 25.15 30.35 24 32 24 33.65 24 34.8 25.15 35.8 26.15 36 27.5 L36 28 36 28.4 36 28.5 Q35.85 29.8 34.8 30.8 33.65 32 32 32 30.35 32 29.15 30.8 28.2 29.85 28.05 28.6 M38.05 33.6 L38.05 33.55 38 33 38.05 32.5 Q38.2 31.15 39.15 30.15 40.35 29 42 29 43.65 29 44.8 30.15 45.8 31.15 46 32.5 L46 33 46 33.4 46 33.5 Q45.85 34.8 44.8 35.8 43.65 37 42 37 40.35 37 39.15 35.8 38.2 34.85 38.05 33.6 M18.05 33.6 L18.05 33.55 18 33 18.05 32.5 Q18.2 31.15 19.15 30.15 20.35 29 22 29 23.65 29 24.8 30.15 25.8 31.15 26 32.5 L26 33 26 33.4 26 33.5 Q25.85 34.8 24.8 35.8 23.65 37 22 37 20.35 37 19.15 35.8 18.2 34.85 18.05 33.6"/>
    <path stroke="none" fill="#919EFF" d="M64 11.9 L64 62 63 62 63 10.15 Q63.95 10.55 64 11.9 M0 62 L0 11.75 0.2 11 Q0.4 10.4 1 10.2 L1 62 0 62"/>
    <path stroke="none" fill="#808CFE" d="M0 62 L1 62 63 62 64 62 64 64 0 64 0 62"/>
  </g>
</svg>