<svg width="64" height="64" xmlns="http://www.w3.org/2000/svg" xmlns:xlink="http://www.w3.org/1999/xlink">
  <defs/>
  <g>
    <path stroke="none" fill="#FFBDD7" d="M38 3.9 L38 2 Q38 0 40 0 L56 0 Q58 0 58 2 L58 3.9 Q57.95 2 56 2 L40 2 Q38.05 2 38 3.9 M58 8 L62.15 8 63 8.15 Q63.95 8.55 64 9.9 L64 11.9 Q63.95 10.55 63 10.15 L62.15 10 1.9 10 1 10.2 Q0.4 10.4 0.2 11 L0 11.75 0 9.9 Q0.05 8.55 1 8.2 L1.9 8 6 8 26 8 38 8 58 8 M6 3.9 L6 2 Q6 0 8 0 L24 0 Q26 0 26 2 L26 3.9 Q25.95 2 24 2 L8 2 Q6.05 2 6 3.9 M23.05 43.5 L23.3 44.05 Q23.95 45.15 24.9 46.1 27.9 49 32 49 36.2 49 39.15 46.1 L40.7 44.05 40.95 43.5 40.95 43.55 40.95 44.5 40.95 44.55 Q41.15 45.35 40.7 46.05 L39.15 48.1 Q36.2 51 32 51 27.9 51 24.9 48.1 23.95 47.15 23.3 46.05 22.85 45.35 23.05 44.55 L23.05 44.5 23.05 43.55 23.05 43.5"/>
    <path stroke="none" fill="#FD94BA" d="M23.05 43.5 L23.05 43.55 23.05 44.5 23.05 44.55 Q22.85 45.35 23.3 46.05 23.95 47.15 24.9 48.1 27.9 51 32 51 36.2 51 39.15 48.1 L40.7 46.05 Q41.15 45.35 40.95 44.55 L40.95 44.5 40.95 43.55 40.95 43.5 40.95 42.55 40.95 42.5 Q40.75 41.7 40.05 41.3 L38.55 41.05 Q37.75 41.25 37.3 41.95 L36.3 43.25 Q34.5 45 32 45 29.5 45 27.7 43.25 L27.75 43.25 26.7 41.95 Q26.25 41.25 25.5 41.05 24.65 40.85 23.95 41.3 23.25 41.7 23.05 42.5 L23.05 42.55 23.05 43.5 M58 3.9 L58 8 38 8 38 3.9 Q38.05 2 40 2 L56 2 Q57.95 2 58 3.9 M6 8 L6 3.9 Q6.05 2 8 2 L24 2 Q25.95 2 26 3.9 L26 8 6 8 M24.05 29.2 L24 30 24.05 30.55 24.05 30.6 Q24.2 33.55 26.35 35.65 28.65 38 32 38 35.25 38 37.6 35.65 39.95 33.4 40 30.2 L40 30 40 29.2 Q39.65 26.3 37.6 24.3 35.25 22 32 22 28.65 22 26.35 24.3 24.35 26.3 24.05 29.2 M1 10.2 L1.9 10 62.15 10 63 10.15 63 62 1 62 1 10.2"/>
    <path stroke="none" fill="#FFFFFF" d="M27.05 29.5 L27 30 Q27 32.1 28.45 33.55 29.9 35 32 35 34.05 35 35.5 33.55 37 32.1 37 30 L37 29.5 Q36.8 27.7 35.5 26.45 34.05 25 32 25 29.9 25 28.45 26.45 27.2 27.7 27.05 29.5 M24.05 29.2 Q24.35 26.3 26.35 24.3 28.65 22 32 22 35.25 22 37.6 24.3 39.65 26.3 40 29.2 L40 30 40 30.2 Q39.95 33.4 37.6 35.65 35.25 38 32 38 28.65 38 26.35 35.65 24.2 33.55 24.05 30.6 L24.05 30.55 24 30 24.05 29.2"/>
    <path stroke="none" fill="#B6577A" d="M27.05 29.5 Q27.2 27.7 28.45 26.45 29.9 25 32 25 34.05 25 35.5 26.45 36.8 27.7 37 29.5 L37 30 Q37 32.1 35.5 33.55 34.05 35 32 35 29.9 35 28.45 33.55 27 32.1 27 30 L27.05 29.5 M40.95 43.5 L40.7 44.05 39.15 46.1 Q36.2 49 32 49 27.9 49 24.9 46.1 23.95 45.15 23.3 44.05 L23.05 43.5 23.05 42.55 23.05 42.5 Q23.25 41.7 23.95 41.3 24.65 40.85 25.5 41.05 26.25 41.25 26.7 41.95 L27.75 43.25 27.7 43.25 Q29.5 45 32 45 34.5 45 36.3 43.25 L37.3 41.95 Q37.75 41.25 38.55 41.05 L40.05 41.3 Q40.75 41.7 40.95 42.5 L40.95 42.55 40.95 43.5"/>
    <path stroke="none" fill="#EF86AB" d="M64 11.9 L64 62 63 62 63 10.15 Q63.95 10.55 64 11.9 M0 62 L0 11.75 0.2 11 Q0.4 10.4 1 10.2 L1 62 0 62"/>
    <path stroke="none" fill="#CD7897" d="M0 62 L1 62 63 62 64 62 64 64 0 64 0 62"/>
  </g>
</svg>