<svg width="64" height="64" xmlns="http://www.w3.org/2000/svg" xmlns:xlink="http://www.w3.org/1999/xlink">
  <defs/>
  <g>
    <path stroke="none" fill="#FFE788" d="M38 3.9 L38 2 Q38 0 40 0 L56 0 Q58 0 58 2 L58 3.9 Q57.95 2 56 2 L40 2 Q38.05 2 38 3.9 M58 8 L62.15 8 63 8.15 Q63.95 8.55 64 9.9 L64 11.9 Q63.95 10.55 63 10.15 L62.15 10 1.9 10 1 10.2 Q0.4 10.4 0.2 11 L0 11.75 0 9.9 Q0.05 8.55 1 8.2 L1.9 8 6 8 26 8 38 8 58 8 M6 3.9 L6 2 Q6 0 8 0 L24 0 Q26 0 26 2 L26 3.9 Q25.95 2 24 2 L8 2 Q6.05 2 6 3.9"/>
    <path stroke="none" fill="#FFCC2F" d="M6 3.9 Q6.05 2 8 2 L24 2 Q25.95 2 26 3.9 L26 8 6 8 6 3.9 M58 3.9 L58 8 38 8 38 3.9 Q38.05 2 40 2 L56 2 Q57.95 2 58 3.9 M55 19 Q55 19.85 54.4 20.4 53.85 21 53 21 52.2 21 51.6 20.45 L51.6 20.4 Q51 19.85 51 19 51 18.2 51.6 17.6 52.2 17 53 17 53.85 17 54.4 17.6 L54.45 17.6 Q55 18.2 55 19 M57 19 Q57 17.35 55.85 16.2 L55.8 16.15 Q54.65 15 53 15 51.35 15 50.15 16.15 49 17.35 49 19 49 20.65 50.15 21.8 L50.2 21.85 Q51.35 23 53 23 54.65 23 55.8 21.8 57 20.65 57 19 M35 39.2 L35 33 Q35 31.8 34.1 30.9 33.2 30 32 30 30.8 30 29.9 30.9 29 31.8 29 33 L29 39.2 29 41 Q29 42.2 29.9 43.1 30.8 44 32 44 33.2 44 34.1 43.1 35 42.2 35 41 L35 39.2 M23.05 36.95 Q23.4 33.95 25.65 31.7 L25.7 31.65 Q28.3 29 32 29 35.75 29 38.4 31.65 40.6 33.85 40.95 36.95 40.65 40.05 38.4 42.4 35.7 45 32 45 28.25 45 25.65 42.4 23.35 40.1 23.05 37 L23.05 36.95 M47 36.5 L47 36.4 47 36 Q47 29.8 42.6 25.4 38.2 21 32 21 25.8 21 21.4 25.4 17 29.8 17 36 L17 36.4 17 36.5 17 37 17 37.5 17 38 Q17 44.2 21.4 48.6 25.8 53 32 53 38.2 53 42.6 48.6 47 44.2 47 38 L47 37.5 47 37 47 36.5 M1 10.2 L1.9 10 62.15 10 63 10.15 63 62 1 62 1 10.2 M57 53 Q57 51.35 55.85 50.2 L55.8 50.15 Q54.65 49 53 49 51.35 49 50.15 50.15 49 51.35 49 53 49 54.65 50.15 55.8 L50.2 55.85 Q51.35 57 53 57 54.65 57 55.8 55.8 57 54.65 57 53 M55 53 Q55 53.85 54.4 54.4 53.85 55 53 55 52.2 55 51.6 54.45 L51.6 54.4 Q51 53.85 51 53 51 52.2 51.6 51.6 52.2 51 53 51 53.85 51 54.4 51.6 L54.45 51.6 Q55 52.2 55 53 M15 19 Q15 17.35 13.85 16.2 L13.8 16.15 Q12.65 15 11 15 9.35 15 8.15 16.15 7 17.35 7 19 7 20.65 8.15 21.8 L8.2 21.85 Q9.35 23 11 23 12.65 23 13.8 21.8 15 20.65 15 19 M13 19 Q13 19.85 12.4 20.4 11.85 21 11 21 10.2 21 9.6 20.45 L9.6 20.4 Q9 19.85 9 19 9 18.2 9.6 17.6 10.2 17 11 17 11.85 17 12.4 17.6 L12.45 17.6 Q13 18.2 13 19 M13 53 Q13 53.85 12.4 54.4 11.85 55 11 55 10.2 55 9.6 54.45 L9.6 54.4 Q9 53.85 9 53 9 52.2 9.6 51.6 10.2 51 11 51 11.85 51 12.4 51.6 L12.45 51.6 Q13 52.2 13 53 M15 53 Q15 51.35 13.85 50.2 L13.8 50.15 Q12.65 49 11 49 9.35 49 8.15 50.15 7 51.35 7 53 7 54.65 8.15 55.8 L8.2 55.85 Q9.35 57 11 57 12.65 57 13.8 55.8 15 54.65 15 53"/>
    <path stroke="none" fill="#FDA827" d="M15 53 Q15 54.65 13.8 55.8 12.65 57 11 57 9.35 57 8.2 55.85 L8.15 55.8 Q7 54.65 7 53 7 51.35 8.15 50.15 9.35 49 11 49 12.65 49 13.8 50.15 L13.85 50.2 Q15 51.35 15 53 M64 62 L64 64 0 64 0 62 1 62 63 62 64 62 M55 19 Q55 18.2 54.45 17.6 L54.4 17.6 Q53.85 17 53 17 52.2 17 51.6 17.6 51 18.2 51 19 51 19.85 51.6 20.4 L51.6 20.45 Q52.2 21 53 21 53.85 21 54.4 20.4 55 19.85 55 19 M57 19 Q57 20.65 55.8 21.8 54.65 23 53 23 51.35 23 50.2 21.85 L50.15 21.8 Q49 20.65 49 19 49 17.35 50.15 16.15 51.35 15 53 15 54.65 15 55.8 16.15 L55.85 16.2 Q57 17.35 57 19 M57 53 Q57 54.65 55.8 55.8 54.65 57 53 57 51.35 57 50.2 55.85 L50.15 55.8 Q49 54.65 49 53 49 51.35 50.15 50.15 51.35 49 53 49 54.65 49 55.8 50.15 L55.85 50.2 Q57 51.35 57 53 M55 53 Q55 52.2 54.45 51.6 L54.4 51.6 Q53.85 51 53 51 52.2 51 51.6 51.6 51 52.2 51 53 51 53.85 51.6 54.4 L51.6 54.45 Q52.2 55 53 55 53.85 55 54.4 54.4 55 53.85 55 53 M15 19 Q15 20.65 13.8 21.8 12.65 23 11 23 9.35 23 8.2 21.85 L8.15 21.8 Q7 20.65 7 19 7 17.35 8.15 16.15 9.35 15 11 15 12.65 15 13.8 16.15 L13.85 16.2 Q15 17.35 15 19 M13 19 Q13 18.2 12.45 17.6 L12.4 17.6 Q11.85 17 11 17 10.2 17 9.6 17.6 9 18.2 9 19 9 19.85 9.6 20.4 L9.6 20.45 Q10.2 21 11 21 11.85 21 12.4 20.4 13 19.85 13 19 M13 53 Q13 52.2 12.45 51.6 L12.4 51.6 Q11.85 51 11 51 10.2 51 9.6 51.6 9 52.2 9 53 9 53.85 9.6 54.4 L9.6 54.45 Q10.2 55 11 55 11.85 55 12.4 54.4 13 53.85 13 53"/>
    <path stroke="none" fill="#FFFFFF" d="M29 39.2 L29 33 Q29 31.8 29.9 30.9 30.8 30 32 30 33.2 30 34.1 30.9 35 31.8 35 33 L35 39.2 Q35 40.2 34.1 41.1 33.2 42 32 42 30.8 42 29.9 41.1 29 40.2 29 39.2 M23.05 36.95 L23.05 37 Q23.35 40.1 25.65 42.4 28.25 45 32 45 35.7 45 38.4 42.4 40.65 40.05 40.95 36.95 L41 36 Q41 32.25 38.4 29.65 35.75 27 32 27 28.3 27 25.7 29.65 L25.65 29.7 Q23 32.3 23 36 L23.05 36.95 M17 36.5 L17 36.4 17 36 Q17 29.8 21.4 25.4 25.8 21 32 21 38.2 21 42.6 25.4 47 29.8 47 36 L47 36.4 47 36.5 Q46.8 42.4 42.6 46.6 38.2 51 32 51 25.8 51 21.4 46.6 17.2 42.4 17 36.5"/>
    <path stroke="none" fill="#FFB733" d="M17 36.5 Q17.2 42.4 21.4 46.6 25.8 51 32 51 38.2 51 42.6 46.6 46.8 42.4 47 36.5 L47 37 47 37.5 47 38 Q47 44.2 42.6 48.6 38.2 53 32 53 25.8 53 21.4 48.6 17 44.2 17 38 L17 37.5 17 37 17 36.5 M64 11.9 L64 62 63 62 63 10.15 Q63.95 10.55 64 11.9 M0 62 L0 11.75 0.2 11 Q0.4 10.4 1 10.2 L1 62 0 62 M35 39.2 L35 41 Q35 42.2 34.1 43.1 33.2 44 32 44 30.8 44 29.9 43.1 29 42.2 29 41 L29 39.2 Q29 40.2 29.9 41.1 30.8 42 32 42 33.2 42 34.1 41.1 35 40.2 35 39.2 M40.95 36.95 Q40.6 33.85 38.4 31.65 35.75 29 32 29 28.3 29 25.7 31.65 L25.65 31.7 Q23.4 33.95 23.05 36.95 L23 36 Q23 32.3 25.65 29.7 L25.7 29.65 Q28.3 27 32 27 35.75 27 38.4 29.65 41 32.25 41 36 L40.95 36.95"/>
  </g>
</svg>