<svg width="64" height="64" xmlns="http://www.w3.org/2000/svg" xmlns:xlink="http://www.w3.org/1999/xlink">
  <defs/>
  <g>
    <path stroke="none" fill="#FFE788" d="M38 3.9 L38 2 Q38 0 40 0 L56 0 Q58 0 58 2 L58 3.9 Q57.95 2 56 2 L40 2 Q38.05 2 38 3.9 M58 8 L62.15 8 63 8.15 Q63.95 8.55 64 9.9 L64 11.9 Q63.95 10.55 63 10.15 L62.15 10 1.9 10 1 10.2 Q0.4 10.4 0.2 11 L0 11.75 0 9.9 Q0.05 8.55 1 8.2 L1.9 8 6 8 26 8 38 8 58 8 M6 3.9 L6 2 Q6 0 8 0 L24 0 Q26 0 26 2 L26 3.9 Q25.95 2 24 2 L8 2 Q6.05 2 6 3.9 M48 31.55 L48 32 48 32.35 48 32.4 48 32.5 48 33 Q48 35.1 46.5 36.55 45.05 38 43 38 40.9 38 39.45 36.55 38 35.1 38 33 L38.05 32.65 38 32 38.05 31.65 Q38.15 32.8 38.8 33.8 L38.9 33.95 38.95 34 39 34.1 39.1 34.15 39.3 34.4 39.4 34.5 39.45 34.55 Q40.9 36 43 36 45.05 36 46.5 34.55 L47.05 34 47.1 33.9 47.25 33.7 47.35 33.55 47.4 33.5 47.95 31.95 48 31.55 M23.05 41.5 L23.3 42.05 Q23.95 43.15 24.9 44.1 27.9 47 32 47 36.2 47 39.15 44.1 L40.7 42.05 40.95 41.5 40.95 41.55 40.95 42.5 40.95 42.55 Q41.15 43.35 40.7 44.05 L39.15 46.1 Q36.2 49 32 49 27.9 49 24.9 46.1 23.95 45.15 23.3 44.05 22.85 43.35 23.05 42.55 L23.05 42.5 23.05 41.55 23.05 41.5 M26 31.4 L26 31.5 26 32 26 32.35 26 32.4 26 32.5 26 33 Q26 35.1 24.5 36.55 23.05 38 21 38 18.9 38 17.45 36.55 16 35.1 16 33 L16.05 32.65 16 32 16.05 31.65 Q16.15 32.8 16.8 33.8 L16.9 33.95 16.95 34 17 34.1 17.1 34.15 17.3 34.4 17.4 34.5 17.45 34.55 Q18.9 36 21 36 23.05 36 24.5 34.55 L25.05 34 25.15 33.8 25.2 33.75 25.9 32.05 26 31.4"/>
    <path stroke="none" fill="#FFCC2F" d="M26 31.4 L26 31.35 26 31.2 26 31 26 30.5 26 30.4 25.95 30 16.15 30 16.05 30.5 16.05 30.6 16 31 16 31.4 16.05 31.65 16 32 16.05 32.65 16 33 Q16 35.1 17.45 36.55 18.9 38 21 38 23.05 38 24.5 36.55 26 35.1 26 33 L26 32.5 26 32.4 26 32.35 26 32 26 31.5 26 31.4 M58 3.9 L58 8 38 8 38 3.9 Q38.05 2 40 2 L56 2 Q57.95 2 58 3.9 M6 8 L6 3.9 Q6.05 2 8 2 L24 2 Q25.95 2 26 3.9 L26 8 6 8 M48 31.55 L48 31.5 48 31.4 48 31.35 48 31.2 48 31 48 30.5 48 30.4 47.95 30 38.15 30 38.05 30.5 38.05 30.6 38 31 38 31.4 38.05 31.65 38 32 38.05 32.65 38 33 Q38 35.1 39.45 36.55 40.9 38 43 38 45.05 38 46.5 36.55 48 35.1 48 33 L48 32.5 48 32.4 48 32.35 48 32 48 31.55 M1 10.2 L1.9 10 62.15 10 63 10.15 63 62 1 62 1 10.2 M40.95 41.5 L40.95 40.55 40.95 40.5 Q40.75 39.7 40.05 39.3 L38.55 39.05 Q37.75 39.25 37.3 39.95 L36.3 41.25 Q34.5 43 32 43 29.5 43 27.7 41.25 L27.75 41.25 26.7 39.95 Q26.25 39.25 25.5 39.05 24.65 38.85 23.95 39.3 23.25 39.7 23.05 40.5 L23.05 40.55 23.05 41.5 23.05 41.55 23.05 42.5 23.05 42.55 Q22.85 43.35 23.3 44.05 23.95 45.15 24.9 46.1 27.9 49 32 49 36.2 49 39.15 46.1 L40.7 44.05 Q41.15 43.35 40.95 42.55 L40.95 42.5 40.95 41.55 40.95 41.5"/>
    <path stroke="none" fill="#C4892E" d="M40.95 41.5 L40.7 42.05 39.15 44.1 Q36.2 47 32 47 27.9 47 24.9 44.1 23.95 43.15 23.3 42.05 L23.05 41.5 23.05 40.55 23.05 40.5 Q23.25 39.7 23.95 39.3 24.65 38.85 25.5 39.05 26.25 39.25 26.7 39.95 L27.75 41.25 27.7 41.25 Q29.5 43 32 43 34.5 43 36.3 41.25 L37.3 39.95 Q37.75 39.25 38.55 39.05 L40.05 39.3 Q40.75 39.7 40.95 40.5 L40.95 40.55 40.95 41.5 M38.05 31.65 L38 31.4 38 31 38.05 30.6 38.05 30.5 38.15 30 47.95 30 48 30.4 48 30.5 48 31 48 31.2 48 31.35 48 31.4 48 31.5 48 31.55 47.95 31.95 47.4 33.5 47.35 33.55 47.25 33.7 47.1 33.9 47.05 34 46.5 34.55 Q45.05 36 43 36 40.9 36 39.45 34.55 L39.4 34.5 39.3 34.4 39.1 34.15 39 34.1 38.95 34 38.9 33.95 38.8 33.8 Q38.15 32.8 38.05 31.65 M16.05 31.65 L16 31.4 16 31 16.05 30.6 16.05 30.5 16.15 30 25.95 30 26 30.4 26 30.5 26 31 26 31.2 26 31.35 26 31.4 25.9 32.05 25.2 33.75 25.15 33.8 25.05 34 24.5 34.55 Q23.05 36 21 36 18.9 36 17.45 34.55 L17.4 34.5 17.3 34.4 17.1 34.15 17 34.1 16.95 34 16.9 33.95 16.8 33.8 Q16.15 32.8 16.05 31.65"/>
    <path stroke="none" fill="#FFB733" d="M64 11.9 L64 62 63 62 63 10.15 Q63.95 10.55 64 11.9 M0 62 L0 11.75 0.2 11 Q0.4 10.4 1 10.2 L1 62 0 62"/>
    <path stroke="none" fill="#FDA827" d="M0 62 L1 62 63 62 64 62 64 64 0 64 0 62"/>
  </g>
</svg>