<svg width="64" height="64" xmlns="http://www.w3.org/2000/svg" xmlns:xlink="http://www.w3.org/1999/xlink">
  <defs/>
  <g>
    <path stroke="none" fill="#F3F1FC" d="M38 3.9 L38 2 Q38 0 40 0 L56 0 Q58 0 58 2 L58 3.9 Q57.95 2 56 2 L40 2 Q38.05 2 38 3.9 M58 8 L62.15 8 63 8.15 Q63.95 8.55 64 9.9 L64 11.9 Q63.95 10.55 63 10.15 L62.15 10 1.9 10 1 10.2 Q0.4 10.4 0.2 11 L0 11.75 0 9.9 Q0.05 8.55 1 8.2 L1.9 8 6 8 26 8 38 8 58 8 M64 26 L64 29 63 29.45 62 29.85 58 31.35 Q48.75 34.15 40.2 32.1 L38.05 31.55 Q35 30.6 32 29 29.2 27.7 26.45 26.85 13 22.55 1 28.5 L0 29 0 26 1 25.5 Q13 19.55 26.45 23.85 29.2 24.7 32 26 35 27.6 38.05 28.55 L40.2 29.1 Q48.75 31.15 58 28.35 L62 26.85 63 26.45 64 26 M6 3.9 L6 2 Q6 0 8 0 L24 0 Q26 0 26 2 L26 3.9 Q25.95 2 24 2 L8 2 Q6.05 2 6 3.9"/>
    <path stroke="none" fill="#E5E1F7" d="M6 3.9 Q6.05 2 8 2 L24 2 Q25.95 2 26 3.9 L26 8 6 8 6 3.9 M58 3.9 L58 8 38 8 38 3.9 Q38.05 2 40 2 L56 2 Q57.95 2 58 3.9 M63 26.45 L62 26.85 58 28.35 Q48.75 31.15 40.2 29.1 L38.05 28.55 Q35 27.6 32 26 29.2 24.7 26.45 23.85 13 19.55 1 25.5 L1 10.2 1.9 10 62.15 10 63 10.15 63 26.45"/>
    <path stroke="none" fill="#726C8C" d="M64 29 L64 32 63 32.45 62 32.85 58 34.35 Q48.75 37.15 40.2 35.1 L38.05 34.55 Q35 33.6 32 32 29.2 30.7 26.45 29.85 13 25.55 1 31.5 L0 32 0 29 1 28.5 Q13 22.55 26.45 26.85 29.2 27.7 32 29 35 30.6 38.05 31.55 L40.2 32.1 Q48.75 34.15 58 31.35 L62 29.85 63 29.45 64 29 M64 62 L64 64 0 64 0 62 1 62 63 62 64 62"/>
    <path stroke="none" fill="#D3CDEC" d="M64 11.9 L64 26 63 26.45 63 10.15 Q63.95 10.55 64 11.9 M0 26 L0 11.75 0.2 11 Q0.4 10.4 1 10.2 L1 25.5 0 26"/>
    <path stroke="none" fill="#817B99" d="M64 32 L64 62 63 62 63 32.45 64 32 M0 62 L0 32 1 31.5 1 62 0 62"/>
    <path stroke="none" fill="#8B85A3" d="M1 31.5 Q13 25.55 26.45 29.85 29.2 30.7 32 32 35 33.6 38.05 34.55 L40.2 35.1 Q48.75 37.15 58 34.35 L62 32.85 63 32.45 63 62 1 62 1 31.5"/>
  </g>
</svg>