<svg width="64" height="64" xmlns="http://www.w3.org/2000/svg" xmlns:xlink="http://www.w3.org/1999/xlink">
  <defs/>
  <g>
    <path stroke="none" fill="#D98D68" d="M58 3.9 Q57.95 2 56 2 L40 2 Q38.05 2 38 3.9 L38 2 Q38 0 40 0 L56 0 Q58 0 58 2 L58 3.9"/>
    <path stroke="none" fill="#C98361" d="M58 3.9 L58 8 38 8 38 3.9 Q38.05 2 40 2 L56 2 Q57.95 2 58 3.9 M50 26 Q50 27.65 48.8 28.8 47.65 30 46 30 44.35 30 43.2 28.85 L43.15 28.8 Q42 27.65 42 26 42 24.35 43.15 23.15 44.35 22 46 22 47.65 22 48.8 23.15 L48.85 23.2 Q50 24.35 50 26 M48 26 Q48 25.2 47.45 24.6 L47.4 24.6 Q46.85 24 46 24 45.2 24 44.6 24.6 44 25.2 44 26 44 26.85 44.6 27.4 L44.6 27.45 Q45.2 28 46 28 46.85 28 47.4 27.4 48 26.85 48 26 M1 10.2 L1.9 10 62.15 10 63 10.15 63 62 1 62 1 10.2 M54 21.9 L54 20 Q54 18 52 18 L12 18 Q10 18 10 20 L10 21.9 10 52.15 Q10.05 54 12 54 L52 54 Q53.95 54 54 52.15 L54 21.9 M50 46 Q50 47.65 48.8 48.8 47.65 50 46 50 44.35 50 43.2 48.85 L43.15 48.8 Q42 47.65 42 46 42 44.35 43.15 43.15 44.35 42 46 42 47.65 42 48.8 43.15 L48.85 43.2 Q50 44.35 50 46 M48 46 Q48 45.2 47.45 44.6 L47.4 44.6 Q46.85 44 46 44 45.2 44 44.6 44.6 44 45.2 44 46 44 46.85 44.6 47.4 L44.6 47.45 Q45.2 48 46 48 46.85 48 47.4 47.4 48 46.85 48 46 M6 3.9 Q6.05 2 8 2 L24 2 Q25.95 2 26 3.9 L26 8 6 8 6 3.9 M22 26 Q22 27.65 20.8 28.8 19.65 30 18 30 16.35 30 15.2 28.85 L15.15 28.8 Q14 27.65 14 26 14 24.35 15.15 23.15 16.35 22 18 22 19.65 22 20.8 23.15 L20.85 23.2 Q22 24.35 22 26 M20 26 Q20 25.2 19.45 24.6 L19.4 24.6 Q18.85 24 18 24 17.2 24 16.6 24.6 16 25.2 16 26 16 26.85 16.6 27.4 L16.6 27.45 Q17.2 28 18 28 18.85 28 19.4 27.4 20 26.85 20 26 M22 46 Q22 47.65 20.8 48.8 19.65 50 18 50 16.35 50 15.2 48.85 L15.15 48.8 Q14 47.65 14 46 14 44.35 15.15 43.15 16.35 42 18 42 19.65 42 20.8 43.15 L20.85 43.2 Q22 44.35 22 46 M20 46 Q20 45.2 19.45 44.6 L19.4 44.6 Q18.85 44 18 44 17.2 44 16.6 44.6 16 45.2 16 46 16 46.85 16.6 47.4 L16.6 47.45 Q17.2 48 18 48 18.85 48 19.4 47.4 20 46.85 20 46"/>
    <path stroke="none" fill="#B67150" d="M20 46 Q20 46.85 19.4 47.4 18.85 48 18 48 17.2 48 16.6 47.45 L16.6 47.4 Q16 46.85 16 46 16 45.2 16.6 44.6 17.2 44 18 44 18.85 44 19.4 44.6 L19.45 44.6 Q20 45.2 20 46 M50 26 Q50 24.35 48.85 23.2 L48.8 23.15 Q47.65 22 46 22 44.35 22 43.15 23.15 42 24.35 42 26 42 27.65 43.15 28.8 L43.2 28.85 Q44.35 30 46 30 47.65 30 48.8 28.8 50 27.65 50 26 M48 26 Q48 26.85 47.4 27.4 46.85 28 46 28 45.2 28 44.6 27.45 L44.6 27.4 Q44 26.85 44 26 44 25.2 44.6 24.6 45.2 24 46 24 46.85 24 47.4 24.6 L47.45 24.6 Q48 25.2 48 26 M54 21.9 L54 52.15 Q53.95 54 52 54 L12 54 Q10.05 54 10 52.15 L10 21.9 Q10.05 20 12 20 L52 20 Q53.95 20 54 21.9 M50 46 Q50 44.35 48.85 43.2 L48.8 43.15 Q47.65 42 46 42 44.35 42 43.15 43.15 42 44.35 42 46 42 47.65 43.15 48.8 L43.2 48.85 Q44.35 50 46 50 47.65 50 48.8 48.8 50 47.65 50 46 M48 46 Q48 46.85 47.4 47.4 46.85 48 46 48 45.2 48 44.6 47.45 L44.6 47.4 Q44 46.85 44 46 44 45.2 44.6 44.6 45.2 44 46 44 46.85 44 47.4 44.6 L47.45 44.6 Q48 45.2 48 46 M63 62 L64 62 64 64 0 64 0 62 1 62 63 62 M22 26 Q22 24.35 20.85 23.2 L20.8 23.15 Q19.65 22 18 22 16.35 22 15.15 23.15 14 24.35 14 26 14 27.65 15.15 28.8 L15.2 28.85 Q16.35 30 18 30 19.65 30 20.8 28.8 22 27.65 22 26 M20 26 Q20 26.85 19.4 27.4 18.85 28 18 28 17.2 28 16.6 27.45 L16.6 27.4 Q16 26.85 16 26 16 25.2 16.6 24.6 17.2 24 18 24 18.85 24 19.4 24.6 L19.45 24.6 Q20 25.2 20 26 M22 46 Q22 44.35 20.85 43.2 L20.8 43.15 Q19.65 42 18 42 16.35 42 15.15 43.15 14 44.35 14 46 14 47.65 15.15 48.8 L15.2 48.85 Q16.35 50 18 50 19.65 50 20.8 48.8 22 47.65 22 46"/>
    <path stroke="none" fill="#E0916B" d="M38 8 L58 8 62.15 8 63 8.15 Q63.95 8.55 64 9.9 L64 11.9 Q63.95 10.55 63 10.15 L62.15 10 1.9 10 1 10.2 Q0.4 10.4 0.2 11 L0 11.75 0 9.9 Q0.05 8.55 1 8.2 L1.9 8 6 8 26 8 38 8 M26 3.9 Q25.95 2 24 2 L8 2 Q6.05 2 6 3.9 L6 2 Q6 0 8 0 L24 0 Q26 0 26 2 L26 3.9"/>
    <path stroke="none" fill="#BF7D5C" d="M63 10.15 Q63.95 10.55 64 11.9 L64 62 63 62 63 10.15 M1 62 L0 62 0 11.75 0.2 11 Q0.4 10.4 1 10.2 L1 62"/>
    <path stroke="none" fill="#A8694A" d="M10 21.9 L10 20 Q10 18 12 18 L52 18 Q54 18 54 20 L54 21.9 Q53.95 20 52 20 L12 20 Q10.05 20 10 21.9"/>
  </g>
</svg>