<svg width="128" height="36" xmlns="http://www.w3.org/2000/svg" xmlns:xlink="http://www.w3.org/1999/xlink">
  <defs/>
  <g>
    <path stroke="none" fill="#FC8889" d="M0 11.75 L0 9.9 Q0.05 8.55 1 8.2 L1.9 8 6 8 26 8 32 8 128 22 128 24 127 23.85 32 10 1.9 10 1 10.2 Q0.4 10.4 0.2 11 L0 11.75 M6 3.9 L6 2 Q6 0 8 0 L24 0 Q26 0 26 2 L26 3.9 Q25.95 2 24 2 L8 2 Q6.05 2 6 3.9"/>
    <path stroke="none" fill="#F54E4F" d="M128 24 L128 34 127 34 127 23.85 128 24 M0 34 L0 11.75 0.2 11 Q0.4 10.4 1 10.2 L1 34 0 34"/>
    <path stroke="none" fill="#FF5859" d="M6 8 L6 3.9 Q6.05 2 8 2 L24 2 Q25.95 2 26 3.9 L26 8 6 8 M1 10.2 L1.9 10 32 10 127 23.85 127 34 1 34 1 10.2"/>
    <path stroke="none" fill="#D94244" d="M128 34 L128 36 0 36 0 34 1 34 127 34 128 34"/>
  </g>
</svg>