<svg width="128" height="22" xmlns="http://www.w3.org/2000/svg" xmlns:xlink="http://www.w3.org/1999/xlink">
  <defs/>
  <g>
    <path stroke="none" fill="#FF5859" d="M70 8 L70 3.9 Q70.05 2 72 2 L88 2 Q89.95 2 90 3.9 L90 8 70 8 M102 8 L102 3.9 Q102.05 2 104 2 L120 2 Q121.95 2 122 3.9 L122 8 102 8 M6 8 L6 3.9 Q6.05 2 8 2 L24 2 Q25.95 2 26 3.9 L26 8 6 8 M38 8 L38 3.9 Q38.05 2 40 2 L56 2 Q57.95 2 58 3.9 L58 8 38 8 M1 10.2 L1.9 10 126.15 10 127 10.15 127 20 1 20 1 10.2"/>
    <path stroke="none" fill="#FC8889" d="M1 10.2 Q0.4 10.4 0.2 11 L0 11.75 0 9.9 Q0.05 8.55 1 8.2 L1.9 8 6 8 26 8 38 8 58 8 70 8 90 8 102 8 122 8 126.15 8 127 8.15 Q127.95 8.55 128 9.9 L128 11.9 Q127.95 10.55 127 10.15 L126.15 10 1.9 10 1 10.2 M70 3.9 L70 2 Q70 0 72 0 L88 0 Q90 0 90 2 L90 3.9 Q89.95 2 88 2 L72 2 Q70.05 2 70 3.9 M102 3.9 L102 2 Q102 0 104 0 L120 0 Q122 0 122 2 L122 3.9 Q121.95 2 120 2 L104 2 Q102.05 2 102 3.9 M6 3.9 L6 2 Q6 0 8 0 L24 0 Q26 0 26 2 L26 3.9 Q25.95 2 24 2 L8 2 Q6.05 2 6 3.9 M38 3.9 L38 2 Q38 0 40 0 L56 0 Q58 0 58 2 L58 3.9 Q57.95 2 56 2 L40 2 Q38.05 2 38 3.9"/>
    <path stroke="none" fill="#D94244" d="M128 20 L128 22 0 22 0 20 1 20 127 20 128 20"/>
    <path stroke="none" fill="#F54E4F" d="M128 20 L127 20 127 10.15 Q127.95 10.55 128 11.9 L128 20 M0 20 L0 11.75 0.2 11 Q0.4 10.4 1 10.2 L1 20 0 20"/>
  </g>
</svg>