<svg width="32" height="64" xmlns="http://www.w3.org/2000/svg" xmlns:xlink="http://www.w3.org/1999/xlink">
  <defs/>
  <g>
    <path stroke="none" fill="#FC8889" d="M26 3.9 Q25.95 2 24 2 L8 2 Q6.05 2 6 3.9 L6 2 Q6 0 8 0 L24 0 Q26 0 26 2 L26 3.9 M6 8 L26 8 30.15 8 31 8.15 Q31.95 8.55 32 9.9 L32 11.9 Q31.95 10.55 31 10.15 L30.15 10 1.9 10 1 10.2 Q0.4 10.4 0.2 11 L0 11.75 0 9.9 Q0.05 8.55 1 8.2 L1.9 8 6 8"/>
    <path stroke="none" fill="#FF5859" d="M6 8 L6 3.9 Q6.05 2 8 2 L24 2 Q25.95 2 26 3.9 L26 8 6 8 M1 10.2 L1.9 10 30.15 10 31 10.15 31 62 1 62 1 10.2"/>
    <path stroke="none" fill="#F54E4F" d="M1 10.2 L1 62 0 62 0 11.75 0.2 11 Q0.4 10.4 1 10.2 M31 10.15 Q31.95 10.55 32 11.9 L32 62 31 62 31 10.15"/>
    <path stroke="none" fill="#D94244" d="M31 62 L32 62 32 64 0 64 0 62 1 62 31 62"/>
  </g>
</svg>