<svg width="128" height="64" xmlns="http://www.w3.org/2000/svg" xmlns:xlink="http://www.w3.org/1999/xlink">
  <defs/>
  <g>
    <path stroke="none" fill="#FC8889" d="M0 38 L0 36 96 8 102 8 122 8 126.15 8 127 8.15 Q127.95 8.55 128 9.9 L128 11.9 Q127.95 10.55 127 10.15 L126.15 10 96 10 1 37.7 0 38 M102 3.9 L102 2 Q102 0 104 0 L120 0 Q122 0 122 2 L122 3.9 Q121.95 2 120 2 L104 2 Q102.05 2 102 3.9"/>
    <path stroke="none" fill="#FF5859" d="M102 3.9 Q102.05 2 104 2 L120 2 Q121.95 2 122 3.9 L122 8 102 8 102 3.9 M1 37.7 L96 10 126.15 10 127 10.15 127 62 1 62 1 37.7"/>
    <path stroke="none" fill="#F54E4F" d="M1 37.7 L1 62 0 62 0 38 1 37.7 M127 10.15 Q127.95 10.55 128 11.9 L128 62 127 62 127 10.15"/>
    <path stroke="none" fill="#D94244" d="M127 62 L128 62 128 64 0 64 0 62 1 62 127 62"/>
  </g>
</svg>