<svg width="64" height="64" xmlns="http://www.w3.org/2000/svg" xmlns:xlink="http://www.w3.org/1999/xlink">
  <defs/>
  <g>
    <path stroke="none" fill="#FF5859" d="M26 8 L6 8 6 3.9 Q6.05 2 8 2 L24 2 Q25.95 2 26 3.9 L26 8 M1 10.15 L1.85 10 32 10 34.75 12.4 63 37.15 63 62 1 62 1 10.15"/>
    <path stroke="none" fill="#FC8889" d="M1 10.15 Q0.05 10.55 0 11.9 L0 9.9 Q0.05 8.55 1 8.15 L1.85 8 6 8 26 8 32 8 34.75 10.4 63 35.15 64 36 64 38 63 37.15 34.75 12.4 32 10 1.85 10 1 10.15 M6 3.9 L6 2 Q6 0 8 0 L24 0 Q26 0 26 2 L26 3.9 Q25.95 2 24 2 L8 2 Q6.05 2 6 3.9"/>
    <path stroke="none" fill="#F54E4F" d="M0 11.9 Q0.05 10.55 1 10.15 L1 62 0 62 0 11.9 M63 37.15 L64 38 64 62 63 62 63 37.15"/>
    <path stroke="none" fill="#D94244" d="M64 62 L64 64 0 64 0 62 1 62 63 62 64 62"/>
  </g>
</svg>