<svg width="128" height="64" xmlns="http://www.w3.org/2000/svg" xmlns:xlink="http://www.w3.org/1999/xlink">
  <defs/>
  <g>
    <path stroke="none" fill="#71D987" d="M6 3.9 L6 2 Q6 0 8 0 L24 0 Q26 0 26 2 L26 3.9 Q25.95 2 24 2 L8 2 Q6.05 2 6 3.9 M26 8 L32 8 128 36 128 38 127 37.7 32 10 1.85 10 1 10.15 Q0.05 10.55 0 11.9 L0 9.9 Q0.05 8.55 1 8.15 L1.85 8 6 8 26 8"/>
    <path stroke="none" fill="#56C46D" d="M26 8 L6 8 6 3.9 Q6.05 2 8 2 L24 2 Q25.95 2 26 3.9 L26 8 M1 10.15 L1.85 10 32 10 127 37.7 127 62 1 62 1 10.15"/>
    <path stroke="none" fill="#4EB162" d="M1 10.15 L1 62 0 62 0 11.9 Q0.05 10.55 1 10.15 M128 38 L128 62 127 62 127 37.7 128 38"/>
    <path stroke="none" fill="#3D9F51" d="M128 62 L128 64 0 64 0 62 1 62 127 62 128 62"/>
  </g>
</svg>