<svg width="64" height="36" xmlns="http://www.w3.org/2000/svg" xmlns:xlink="http://www.w3.org/1999/xlink">
  <defs/>
  <g>
    <path stroke="none" fill="#1695ED" d="M38 3.9 Q38.05 2 40 2 L56 2 Q57.95 2 58 3.9 L58 8 38 8 38 3.9 M1 23.6 L32 10 62.1 10 63 10.2 63 34 1 34 1 23.6"/>
    <path stroke="none" fill="#34B1FF" d="M1 23.6 L0 24 0 22 32 8 38 8 58 8 62.1 8 63 8.2 Q63.95 8.55 64 9.9 L64 11.75 63.8 11 Q63.6 10.4 63 10.2 L62.1 10 32 10 1 23.6 M58 3.9 Q57.95 2 56 2 L40 2 Q38.05 2 38 3.9 L38 2 Q38 0 40 0 L56 0 Q58 0 58 2 L58 3.9"/>
    <path stroke="none" fill="#108BE2" d="M0 24 L1 23.6 1 34 0 34 0 24 M63 10.2 Q63.6 10.4 63.8 11 L64 11.75 64 34 63 34 63 10.2"/>
    <path stroke="none" fill="#0C7FD0" d="M64 34 L64 36 0 36 0 34 1 34 63 34 64 34"/>
  </g>
</svg>