<svg width="64" height="36" xmlns="http://www.w3.org/2000/svg" xmlns:xlink="http://www.w3.org/1999/xlink">
  <defs/>
  <g>
    <path stroke="none" fill="#34B1FF" d="M26 3.9 Q25.95 2 24 2 L8 2 Q6.05 2 6 3.9 L6 2 Q6 0 8 0 L24 0 Q26 0 26 2 L26 3.9 M6 8 L26 8 32 8 64 22 64 24 63 23.6 32 10 1.9 10 1 10.2 Q0.4 10.4 0.2 11 L0 11.75 0 9.9 Q0.05 8.55 1 8.2 L1.9 8 6 8"/>
    <path stroke="none" fill="#1695ED" d="M6 8 L6 3.9 Q6.05 2 8 2 L24 2 Q25.95 2 26 3.9 L26 8 6 8 M1 10.2 L1.9 10 32 10 63 23.6 63 34 1 34 1 10.2"/>
    <path stroke="none" fill="#108BE2" d="M1 10.2 L1 34 0 34 0 11.75 0.2 11 Q0.4 10.4 1 10.2 M63 23.6 L64 24 64 34 63 34 63 23.6"/>
    <path stroke="none" fill="#0C7FD0" d="M0 34 L1 34 63 34 64 34 64 36 0 36 0 34"/>
  </g>
</svg>